<svg xmlns="http://www.w3.org/2000/svg" width="737" height="737" viewBox="0 0 737 737" version="1.1"><path d="M 190 94.008 C 155.257 96.345, 129.660 113.530, 121.494 140 C 120.344 143.729, 119.588 150.973, 119.149 162.495 L 118.500 179.490 112.247 181.716 C 99.125 186.388, 88.341 195.948, 82.597 208 L 79.500 214.500 79.191 362 C 78.960 472.445, 79.179 510.882, 80.061 515 C 81.685 522.584, 84.993 528.737, 90.946 535.251 L 96 540.780 96 550.285 C 96 567.560, 101.897 579.483, 114.047 586.771 L 119.500 590.043 120.114 599.271 C 120.842 610.221, 123.062 615.943, 129.144 622.540 C 135.954 629.928, 144.252 633.884, 157.324 635.972 C 166.750 637.478, 574.080 637.461, 584.046 635.955 C 594.687 634.346, 604.505 629.416, 610.812 622.516 C 617.547 615.146, 620 608.484, 620 597.558 L 620 589.190 624.367 586.631 C 630.841 582.837, 638.500 573.936, 641.047 567.247 C 642.662 563.004, 643.323 558.751, 643.573 551 L 643.911 540.500 648.918 535.176 C 654.735 528.991, 658.553 521.725, 659.986 514.114 C 661.370 506.761, 661.378 225.301, 659.995 217.886 C 657.084 202.292, 644.220 188.048, 627.500 181.907 C 624.200 180.694, 621.169 179.207, 620.765 178.601 C 620.361 177.996, 620.017 170.975, 620.001 163 C 619.981 153.674, 619.432 146.218, 618.463 142.103 C 613.418 120.702, 595.062 104.213, 568.893 97.575 C 541.778 90.696, 499.748 92.494, 465.500 101.998 C 422.799 113.847, 389.854 134.104, 374.057 158.226 L 369.652 164.951 365.626 158.726 C 359.888 149.853, 345.926 136.487, 334.393 128.823 C 303.665 108.405, 265.262 96.503, 222 93.987 C 212.925 93.460, 204.375 93.090, 203 93.165 C 201.625 93.240, 195.775 93.620, 190 94.008 M 192.500 116.969 C 174.207 118.039, 165.381 121.143, 155.840 129.864 C 149.740 135.439, 145.626 142.247, 144.016 149.429 C 142.470 156.327, 142.523 448.492, 144.071 454.325 C 145.668 460.341, 153.801 467.977, 161 470.219 C 164.025 471.161, 176.175 473.320, 188 475.017 C 213.007 478.605, 228.210 481.600, 247 486.639 C 273.527 493.753, 302.016 505.892, 318.970 517.305 C 329.129 524.144, 345.642 540.730, 351.636 550.116 C 354.311 554.304, 357.041 558.579, 357.702 559.616 C 358.640 561.086, 358.855 521.753, 358.679 380.500 C 358.429 178.749, 359.074 196.642, 351.489 181.285 C 343.051 164.202, 327.031 149.528, 304.500 138.245 C 272.164 122.051, 232.958 114.603, 192.500 116.969 M 500.884 118.018 C 490.266 119.222, 471.380 123.582, 459.953 127.468 C 422.558 140.185, 398.885 158.333, 387.798 182.786 C 381.747 196.130, 382.035 186.177, 382.029 382 L 382.023 561.500 385.628 555.023 C 409.344 512.410, 464.367 486.330, 555.620 474.447 C 566.403 473.043, 577.087 471.164, 579.363 470.271 C 588.254 466.785, 594.106 461.034, 596.029 453.891 C 597.392 448.830, 597.404 157.376, 596.042 150.209 C 594.730 143.306, 591.200 137.425, 584.654 131.234 C 578.248 125.176, 573.291 122.539, 563.169 119.806 C 556.636 118.042, 552.020 117.693, 532 117.445 C 519.075 117.286, 505.073 117.543, 500.884 118.018 M 232.287 139.014 C 215.809 141.412, 200.396 153.346, 194.906 167.958 C 190.592 179.439, 191.629 194.414, 197.547 206.093 C 205.450 221.688, 230.002 260.300, 233.455 262.562 C 237.257 265.054, 242.744 263.888, 246.532 259.785 C 250.282 255.723, 275.145 214.117, 279.669 204.333 C 285.891 190.879, 285.991 176.519, 279.949 164.245 C 271.524 147.131, 251.037 136.286, 232.287 139.014 M 459.868 183.750 C 451.271 197.363, 443.028 210.452, 441.550 212.838 L 438.864 217.176 436.094 212.838 C 432.167 206.688, 425.189 200.619, 419.581 198.478 C 415.405 196.883, 414.175 196.805, 410.140 197.879 C 401.888 200.075, 401 201.120, 401 208.630 C 401 214.492, 401.192 215.140, 402.750 214.536 C 406.894 212.931, 413.640 212.823, 417.187 214.305 C 424.299 217.276, 426.233 225.271, 420.814 229.299 C 418.387 231.103, 417.697 231.175, 413.680 230.050 C 410.162 229.065, 408.738 229.061, 406.866 230.031 C 400.811 233.168, 401 232.284, 401 257.548 C 401 277.816, 401.202 280.864, 402.582 281.393 C 403.452 281.727, 407.614 281.996, 411.832 281.991 L 419.500 281.983 426.423 269.741 C 438.824 247.816, 468.624 195.626, 471.669 190.500 C 473.303 187.750, 475.150 185.500, 475.773 185.500 C 476.794 185.500, 495.439 214.146, 499.387 221.782 C 505.191 233.006, 493.915 242.491, 485.445 233.510 C 483.538 231.489, 480.816 226.544, 478.977 221.760 C 477.230 217.217, 475.658 213.350, 475.484 213.167 C 474.574 212.211, 436 278.616, 436 281.138 C 436 281.612, 438.683 282, 441.963 282 L 447.925 282 452.023 275.966 C 459.021 265.661, 461.790 263, 465.515 263 C 469.158 263, 470.137 263.949, 478.245 275.336 L 482.989 282 512.840 282 C 545.598 282, 543.664 282.350, 546.919 275.830 C 548.196 273.272, 547.790 272.453, 537.257 256.330 C 531.209 247.073, 520.980 230.950, 514.524 220.500 C 508.068 210.050, 496.883 191.938, 489.668 180.250 C 482.453 168.563, 476.313 159, 476.025 159 C 475.736 159.001, 468.466 170.138, 459.868 183.750 M 229.168 168.146 C 222.558 171.418, 219.500 176.753, 219.500 185.012 C 219.500 190.656, 219.921 192.279, 222.264 195.659 C 229.626 206.283, 244.411 207.130, 252.939 197.416 C 257.820 191.857, 259.138 184.660, 256.452 178.232 C 251.962 167.484, 239.679 162.943, 229.168 168.146 M 111.882 209.259 C 109.532 211.052, 106.506 214.661, 105.159 217.280 L 102.708 222.042 102.753 361.811 C 102.792 485.732, 102.973 502, 104.347 505.289 C 106.837 511.249, 110.618 515.471, 116.246 518.579 L 121.500 521.480 164.500 522.134 C 207.937 522.795, 226.523 523.897, 239.741 526.598 C 284.768 535.797, 322.807 555.677, 340.682 579.352 C 347.225 588.019, 347.697 588.310, 344.115 581.471 C 336.213 566.385, 318.556 547.167, 303.304 537.053 C 286.552 525.943, 260.545 514.964, 235.972 508.629 C 214.582 503.114, 197.241 500.925, 167.164 499.943 C 141.966 499.120, 138.312 498.789, 134.176 496.960 C 128.457 494.430, 125.453 491.703, 122.653 486.500 L 120.500 482.500 120.236 344.250 C 119.978 208.970, 119.931 206, 118.064 206 C 117.014 206, 114.233 207.467, 111.882 209.259 M 620.711 206.622 C 620.369 206.964, 620.064 268.468, 620.032 343.297 C 619.991 442.672, 619.666 480.383, 618.827 483.183 C 618.196 485.290, 616.191 488.753, 614.372 490.878 C 608.328 497.939, 606.845 498.269, 575 499.627 C 542.838 500.998, 523.444 503.417, 503.463 508.549 C 474.668 515.946, 456.832 523.245, 439.723 534.635 C 423.360 545.529, 405.304 564.201, 396.755 579.069 C 394.454 583.071, 395.518 582.260, 405.314 572.547 C 411.466 566.447, 419.875 559.158, 424 556.349 C 433.671 549.764, 453.808 539.624, 461.500 537.464 C 464.800 536.538, 468.850 535.185, 470.500 534.457 C 477.378 531.425, 500.049 526.537, 519.500 523.893 C 524.775 523.176, 547.126 522.427, 573.500 522.085 C 614.802 521.548, 618.788 521.347, 622 519.638 C 626.886 517.039, 631.789 512.215, 634.338 507.500 L 636.500 503.500 636.764 364.158 C 636.946 267.735, 636.699 223.595, 635.960 220.851 C 634.775 216.452, 629.153 209.648, 624.875 207.435 C 621.716 205.802, 621.562 205.772, 620.711 206.622 M 532 222.471 C 532 223.624, 552.627 255.366, 556.241 259.775 C 557.038 260.747, 558.080 259.869, 560.643 256.064 C 562.489 253.322, 564 250.412, 564 249.596 C 564 247.875, 548.812 234.206, 538.843 226.955 C 535.079 224.218, 532 222.200, 532 222.471 M 573.656 240.250 C 571.094 242.597, 533.592 297.925, 534.171 298.504 C 534.480 298.813, 552.691 301, 554.961 301 C 555.532 301, 556 301.476, 556 302.058 C 556 302.639, 548.869 313.102, 540.152 325.308 C 522.553 349.953, 520.556 352.902, 521.115 353.421 C 521.327 353.618, 526.398 354.541, 532.384 355.472 C 546.500 357.668, 546.602 357.711, 544.187 360.378 C 540.691 364.239, 520 395.821, 520 397.296 C 520 399.910, 527.368 407.062, 531.500 408.459 L 535.500 409.812 535.776 424.264 L 536.052 438.717 528.276 439.960 C 520.797 441.156, 500.370 446.046, 496.750 447.508 C 495.189 448.138, 495 447.502, 495 441.607 L 495 435 512.250 434.985 C 521.737 434.976, 530.113 434.581, 530.862 434.106 C 531.929 433.431, 531.146 431.641, 527.262 425.871 C 524.533 421.817, 517.439 410.625, 511.498 401 C 505.558 391.375, 499.192 381.259, 497.353 378.520 C 493.243 372.400, 493.227 372.409, 508.960 371.414 C 515.065 371.028, 520.235 370.429, 520.449 370.083 C 520.831 369.464, 492.798 331.543, 488.854 327.345 C 486.925 325.292, 486.916 325.164, 488.664 324.655 C 489.674 324.361, 494.758 323.622, 499.963 323.014 C 505.168 322.405, 509.516 321.816, 509.627 321.704 C 509.737 321.592, 505.479 315.555, 500.164 308.290 C 494.849 301.024, 486.675 289.586, 482 282.871 C 472.059 268.593, 467.999 264, 465.319 264 C 462.536 264, 459.739 267.318, 445.931 287 C 439.179 296.625, 431.053 308.199, 427.874 312.720 C 424.696 317.241, 422.411 321.119, 422.797 321.337 C 423.184 321.554, 427.887 322.301, 433.250 322.995 C 438.613 323.689, 443 324.686, 443 325.210 C 443 325.735, 441.480 328.039, 439.622 330.332 C 437.764 332.624, 430.760 342.129, 424.058 351.454 C 410.246 370.671, 410.251 368.986, 424 370.914 C 428.675 371.570, 433.252 372.326, 434.171 372.595 C 435.498 372.984, 431.859 379.214, 416.534 402.792 C 405.914 419.132, 397.426 432.837, 397.672 433.250 C 397.917 433.662, 407.290 434, 418.500 434 C 429.710 434, 439.021 434.337, 439.191 434.750 C 439.361 435.163, 439.368 444.219, 439.207 454.876 L 438.915 474.252 430.957 482.349 C 426.581 486.803, 423 490.543, 423 490.661 C 423 490.780, 427.837 488.839, 433.750 486.350 C 474.894 469.025, 516.547 458.019, 563.276 452.127 C 574.183 450.752, 578.572 449.793, 580.039 448.464 C 582.002 446.688, 582.024 445.363, 581.764 343.752 C 581.506 243.192, 581.456 240.806, 579.559 239.419 C 576.993 237.543, 576.541 237.607, 573.656 240.250 M 583 276 L 583 282 588.066 282 L 593.133 282 588.419 276 C 585.826 272.700, 583.546 270, 583.352 270 C 583.159 270, 583 272.700, 583 276 M 145.750 279.538 C 145.338 279.976, 145 283.153, 145 286.599 C 145 291.699, 145.326 292.963, 146.750 293.393 C 149.718 294.287, 171.707 297.804, 188 299.990 C 222.900 304.672, 253.518 311.154, 269.314 317.202 C 285.542 323.417, 290.436 334.960, 281.193 345.219 C 276.315 350.635, 270.620 353.017, 247.142 359.465 C 217.273 367.667, 201.700 374.044, 188.458 383.493 C 169.007 397.373, 161.248 417.839, 165.365 444.410 C 166.935 454.547, 167.726 455.958, 171.847 455.985 C 175.502 456.009, 208.926 461.785, 218.714 464.084 C 230.330 466.814, 255.022 473.443, 267.500 477.183 C 281.664 481.429, 290.777 484.695, 312.862 493.442 C 323.511 497.659, 332.473 500.860, 332.778 500.555 C 333.084 500.250, 333.146 499.870, 332.917 499.712 C 313.369 486.197, 289.571 463.680, 278.790 448.500 C 270.584 436.945, 267.758 430.536, 267.213 422.240 C 266.604 412.975, 268.544 407.597, 274.462 402.141 C 280.274 396.784, 285.428 394.318, 305 387.528 C 329.820 378.917, 340.893 372.855, 346.784 364.651 C 360.935 344.944, 354.157 321.704, 330.171 307.690 C 313.318 297.843, 281.870 289.228, 249.500 285.590 C 209.595 281.105, 147.679 277.494, 145.750 279.538 M 258.648 297.475 C 257.021 301.714, 257.814 302.612, 264.232 303.806 C 269.321 304.752, 270.713 304.715, 271.825 303.604 C 272.972 302.456, 272.637 301.825, 269.686 299.574 C 265.211 296.161, 259.564 295.087, 258.648 297.475 M 291.510 308.246 C 289.981 310.388, 290.036 310.599, 292.604 312.500 C 294.090 313.600, 297.591 316.190, 300.385 318.256 C 303.178 320.322, 305.921 321.860, 306.481 321.674 C 308.263 321.083, 309.528 316.062, 308.364 314.197 C 307.018 312.041, 299.336 307.391, 295.810 306.597 C 293.738 306.131, 292.749 306.510, 291.510 308.246 M 304.487 339.624 C 303.119 342.718, 302 345.666, 302 346.175 C 302 346.956, 307.907 350, 309.421 350 C 310.315 350, 314 340.773, 314 338.533 C 314 336.499, 310.659 334, 307.940 334 C 307.409 334, 305.855 336.531, 304.487 339.624 M 281.821 363.028 C 278.698 364.641, 275.860 366.418, 275.514 366.978 C 274.553 368.532, 278.197 374, 280.193 374 C 282.684 374, 293.001 368.796, 292.996 367.542 C 292.991 366.041, 289.171 359.991, 288.265 360.048 C 287.844 360.075, 284.945 361.416, 281.821 363.028 M 243.446 378.115 C 240.726 379.828, 238.307 381.408, 238.071 381.627 C 237.108 382.520, 241.088 389, 242.598 389 C 245.239 389, 254 383.810, 254 382.245 C 254 380.182, 250.767 375, 249.480 375 C 248.881 375, 246.166 376.402, 243.446 378.115 M 217.222 395.264 C 216.052 396.509, 214.399 399.193, 213.549 401.229 C 212.090 404.721, 212.112 404.989, 213.935 405.965 C 218.051 408.168, 220.677 407.227, 223.405 402.572 C 226.504 397.283, 226.649 395.418, 224.066 394.035 C 221.160 392.480, 219.569 392.766, 217.222 395.264 M 214.250 422.220 C 211.775 423.414, 211.452 425.931, 212.946 432.372 C 214.186 437.717, 215.247 438.555, 218.873 437.053 C 220.514 436.373, 222.054 435.296, 222.296 434.658 C 222.958 432.916, 220.110 422.689, 218.716 421.803 C 217.223 420.855, 217.048 420.871, 214.250 422.220 M 223.011 450.487 C 221.340 452.501, 222.332 455.776, 225.930 460.118 C 228.305 462.984, 229.459 463.635, 231.479 463.249 C 232.882 462.981, 234.277 462.362, 234.578 461.873 C 234.880 461.385, 233.645 458.288, 231.833 454.993 C 228.390 448.730, 225.636 447.323, 223.011 450.487 M 121.022 550.170 C 121.073 553.253, 125.008 559.870, 128.102 562.072 C 132.009 564.855, 130.637 564.781, 189.500 565.392 C 221.736 565.727, 231.275 566.162, 244.500 567.903 C 265.369 570.650, 264.599 570.505, 285.500 575.605 C 303.272 579.942, 318.969 585.335, 334.426 592.416 C 343.726 596.676, 342.851 594.850, 332.153 587.672 C 306.873 570.711, 271.451 557.886, 232 551.410 C 217.813 549.081, 120.986 547.999, 121.022 550.170 M 515 550.124 C 473.209 554.939, 432.273 569.321, 406.978 588.077 C 397.637 595.002, 396.098 596.996, 402.649 593.683 C 409.169 590.386, 427.967 582.752, 436 580.139 C 447.473 576.406, 477.186 569.998, 492 568.060 C 497.225 567.377, 503.632 566.471, 506.238 566.048 C 508.844 565.624, 517.819 565.188, 526.181 565.078 C 534.544 564.969, 541.689 564.692, 542.058 564.464 C 542.427 564.236, 557.310 564.015, 575.131 563.974 C 605.879 563.902, 607.697 563.795, 610.732 561.873 C 614.413 559.542, 618 554.241, 618 551.132 L 618 549 570.250 549.130 C 543.987 549.201, 519.125 549.648, 515 550.124 M 145.033 595.115 C 145.052 596.427, 145.858 598.446, 146.825 599.603 C 151.050 604.657, 148.495 604.498, 225.731 604.529 C 265.458 604.545, 297.408 604.254, 296.731 603.882 C 294.770 602.805, 275.543 599.195, 263 597.548 C 240.398 594.581, 227.931 593.889, 186.750 593.313 L 145 592.730 145.033 595.115 M 520.500 593.669 C 504.778 594.430, 484.234 596.301, 472.004 598.086 C 459.126 599.966, 440.510 603.847, 441.182 604.512 C 441.357 604.685, 444.875 604.454, 449 603.999 C 453.125 603.543, 466.625 603.347, 479 603.562 C 491.375 603.778, 520.350 604.188, 543.389 604.473 C 583.813 604.974, 585.389 604.923, 588.467 603.020 C 590.221 601.936, 592.184 599.892, 592.828 598.478 C 595.443 592.739, 596.949 592.983, 560.250 593.189 C 541.688 593.293, 523.800 593.509, 520.500 593.669" stroke="none" fill="#09192a" fill-rule="evenodd"/><path d="M 177.643 0.691 C 177.538 0.795, 173.188 1.146, 167.976 1.470 C 147.536 2.741, 136.326 5.014, 116.887 11.830 C 102.669 16.815, 77.219 30.788, 66.558 39.463 C 62.747 42.565, 45.942 59.335, 41.469 64.500 C 32.095 75.327, 17.603 101.854, 12.515 117.500 C 9.317 127.334, 5.346 142.958, 4.508 149 C 4.165 151.475, 3.706 154.625, 3.489 156 C 3.081 158.571, 2.274 170.409, 1.545 184.500 C 1.051 194.057, 1.017 549.637, 1.510 559 C 2.993 587.178, 6.772 604.641, 16.225 627 C 22.332 641.444, 26.220 648.734, 33.883 660.110 C 42.992 673.632, 46.574 677.741, 62.274 692.689 C 71.618 701.585, 76.510 705.072, 90.500 712.808 C 113.233 725.379, 136.759 732.636, 164.500 735.634 C 172.229 736.469, 556.404 736.282, 570 735.437 C 617.488 732.483, 661.661 710.512, 690.590 675.457 C 712.734 648.624, 730.155 608.416, 733.464 576.500 C 734.228 569.137, 735.039 561.040, 735.466 556.500 C 735.879 552.122, 735.862 187.747, 735.449 179.279 C 734.060 150.809, 729.134 128.246, 719.231 105 C 713.251 90.962, 701.107 71.092, 692.951 62 C 674.235 41.138, 660.903 30.931, 637.500 19.550 C 614.149 8.194, 592.888 2.820, 566 1.477 C 555.862 0.971, 178.127 0.206, 177.643 0.691 M 190 94.008 C 155.257 96.345, 129.660 113.530, 121.494 140 C 120.344 143.729, 119.588 150.973, 119.149 162.495 L 118.500 179.490 112.247 181.716 C 99.125 186.388, 88.341 195.948, 82.597 208 L 79.500 214.500 79.191 362 C 78.960 472.445, 79.179 510.882, 80.061 515 C 81.685 522.584, 84.993 528.737, 90.946 535.251 L 96 540.780 96 550.285 C 96 567.560, 101.897 579.483, 114.047 586.771 L 119.500 590.043 120.114 599.271 C 120.842 610.221, 123.062 615.943, 129.144 622.540 C 135.954 629.928, 144.252 633.884, 157.324 635.972 C 166.750 637.478, 574.080 637.461, 584.046 635.955 C 594.687 634.346, 604.505 629.416, 610.812 622.516 C 617.547 615.146, 620 608.484, 620 597.558 L 620 589.190 624.367 586.631 C 630.841 582.837, 638.500 573.936, 641.047 567.247 C 642.662 563.004, 643.323 558.751, 643.573 551 L 643.911 540.500 648.918 535.176 C 654.735 528.991, 658.553 521.725, 659.986 514.114 C 661.370 506.761, 661.378 225.301, 659.995 217.886 C 657.084 202.292, 644.220 188.048, 627.500 181.907 C 624.200 180.694, 621.169 179.207, 620.765 178.601 C 620.361 177.996, 620.017 170.975, 620.001 163 C 619.981 153.674, 619.432 146.218, 618.463 142.103 C 613.418 120.702, 595.062 104.213, 568.893 97.575 C 541.778 90.696, 499.748 92.494, 465.500 101.998 C 422.799 113.847, 389.854 134.104, 374.057 158.226 L 369.652 164.951 365.626 158.726 C 359.888 149.853, 345.926 136.487, 334.393 128.823 C 303.665 108.405, 265.262 96.503, 222 93.987 C 212.925 93.460, 204.375 93.090, 203 93.165 C 201.625 93.240, 195.775 93.620, 190 94.008 M 192.500 116.969 C 174.207 118.039, 165.381 121.143, 155.840 129.864 C 149.740 135.439, 145.626 142.247, 144.016 149.429 C 142.470 156.327, 142.523 448.492, 144.071 454.325 C 145.668 460.341, 153.801 467.977, 161 470.219 C 164.025 471.161, 176.175 473.320, 188 475.017 C 213.007 478.605, 228.210 481.600, 247 486.639 C 273.527 493.753, 302.016 505.892, 318.970 517.305 C 329.129 524.144, 345.642 540.730, 351.636 550.116 C 354.311 554.304, 357.041 558.579, 357.702 559.616 C 358.640 561.086, 358.855 521.753, 358.679 380.500 C 358.429 178.749, 359.074 196.642, 351.489 181.285 C 343.051 164.202, 327.031 149.528, 304.500 138.245 C 272.164 122.051, 232.958 114.603, 192.500 116.969 M 500.884 118.018 C 490.266 119.222, 471.380 123.582, 459.953 127.468 C 422.558 140.185, 398.885 158.333, 387.798 182.786 C 381.747 196.130, 382.035 186.177, 382.029 382 L 382.023 561.500 385.628 555.023 C 409.344 512.410, 464.367 486.330, 555.620 474.447 C 566.403 473.043, 577.087 471.164, 579.363 470.271 C 588.254 466.785, 594.106 461.034, 596.029 453.891 C 597.392 448.830, 597.404 157.376, 596.042 150.209 C 594.730 143.306, 591.200 137.425, 584.654 131.234 C 578.248 125.176, 573.291 122.539, 563.169 119.806 C 556.636 118.042, 552.020 117.693, 532 117.445 C 519.075 117.286, 505.073 117.543, 500.884 118.018 M 232.287 139.014 C 215.809 141.412, 200.396 153.346, 194.906 167.958 C 190.592 179.439, 191.629 194.414, 197.547 206.093 C 205.450 221.688, 230.002 260.300, 233.455 262.562 C 237.257 265.054, 242.744 263.888, 246.532 259.785 C 250.282 255.723, 275.145 214.117, 279.669 204.333 C 285.891 190.879, 285.991 176.519, 279.949 164.245 C 271.524 147.131, 251.037 136.286, 232.287 139.014 M 459.868 183.750 C 451.271 197.363, 443.028 210.452, 441.550 212.838 L 438.864 217.176 436.094 212.838 C 432.167 206.688, 425.189 200.619, 419.581 198.478 C 415.405 196.883, 414.175 196.805, 410.140 197.879 C 401.888 200.075, 401 201.120, 401 208.630 C 401 214.492, 401.192 215.140, 402.750 214.536 C 406.894 212.931, 413.640 212.823, 417.187 214.305 C 424.299 217.276, 426.233 225.271, 420.814 229.299 C 418.387 231.103, 417.697 231.175, 413.680 230.050 C 410.162 229.065, 408.738 229.061, 406.866 230.031 C 400.811 233.168, 401 232.284, 401 257.548 C 401 277.816, 401.202 280.864, 402.582 281.393 C 403.452 281.727, 407.614 281.996, 411.832 281.991 L 419.500 281.983 426.423 269.741 C 438.824 247.816, 468.624 195.626, 471.669 190.500 C 473.303 187.750, 475.150 185.500, 475.773 185.500 C 476.794 185.500, 495.439 214.146, 499.387 221.782 C 505.191 233.006, 493.915 242.491, 485.445 233.510 C 483.538 231.489, 480.816 226.544, 478.977 221.760 C 477.230 217.217, 475.658 213.350, 475.484 213.167 C 474.574 212.211, 436 278.616, 436 281.138 C 436 281.612, 438.683 282, 441.963 282 L 447.925 282 452.023 275.966 C 459.021 265.661, 461.790 263, 465.515 263 C 469.158 263, 470.137 263.949, 478.245 275.336 L 482.989 282 512.840 282 C 545.598 282, 543.664 282.350, 546.919 275.830 C 548.196 273.272, 547.790 272.453, 537.257 256.330 C 531.209 247.073, 520.980 230.950, 514.524 220.500 C 508.068 210.050, 496.883 191.938, 489.668 180.250 C 482.453 168.563, 476.313 159, 476.025 159 C 475.736 159.001, 468.466 170.138, 459.868 183.750 M 229.168 168.146 C 222.558 171.418, 219.500 176.753, 219.500 185.012 C 219.500 190.656, 219.921 192.279, 222.264 195.659 C 229.626 206.283, 244.411 207.130, 252.939 197.416 C 257.820 191.857, 259.138 184.660, 256.452 178.232 C 251.962 167.484, 239.679 162.943, 229.168 168.146 M 111.882 209.259 C 109.532 211.052, 106.506 214.661, 105.159 217.280 L 102.708 222.042 102.753 361.811 C 102.792 485.732, 102.973 502, 104.347 505.289 C 106.837 511.249, 110.618 515.471, 116.246 518.579 L 121.500 521.480 164.500 522.134 C 207.937 522.795, 226.523 523.897, 239.741 526.598 C 284.768 535.797, 322.807 555.677, 340.682 579.352 C 347.225 588.019, 347.697 588.310, 344.115 581.471 C 336.213 566.385, 318.556 547.167, 303.304 537.053 C 286.552 525.943, 260.545 514.964, 235.972 508.629 C 214.582 503.114, 197.241 500.925, 167.164 499.943 C 141.966 499.120, 138.312 498.789, 134.176 496.960 C 128.457 494.430, 125.453 491.703, 122.653 486.500 L 120.500 482.500 120.236 344.250 C 119.978 208.970, 119.931 206, 118.064 206 C 117.014 206, 114.233 207.467, 111.882 209.259 M 620.711 206.622 C 620.369 206.964, 620.064 268.468, 620.032 343.297 C 619.991 442.672, 619.666 480.383, 618.827 483.183 C 618.196 485.290, 616.191 488.753, 614.372 490.878 C 608.328 497.939, 606.845 498.269, 575 499.627 C 542.838 500.998, 523.444 503.417, 503.463 508.549 C 474.668 515.946, 456.832 523.245, 439.723 534.635 C 423.360 545.529, 405.304 564.201, 396.755 579.069 C 394.454 583.071, 395.518 582.260, 405.314 572.547 C 411.466 566.447, 419.875 559.158, 424 556.349 C 433.671 549.764, 453.808 539.624, 461.500 537.464 C 464.800 536.538, 468.850 535.185, 470.500 534.457 C 477.378 531.425, 500.049 526.537, 519.500 523.893 C 524.775 523.176, 547.126 522.427, 573.500 522.085 C 614.802 521.548, 618.788 521.347, 622 519.638 C 626.886 517.039, 631.789 512.215, 634.338 507.500 L 636.500 503.500 636.764 364.158 C 636.946 267.735, 636.699 223.595, 635.960 220.851 C 634.775 216.452, 629.153 209.648, 624.875 207.435 C 621.716 205.802, 621.562 205.772, 620.711 206.622 M 532 222.471 C 532 223.624, 552.627 255.366, 556.241 259.775 C 557.038 260.747, 558.080 259.869, 560.643 256.064 C 562.489 253.322, 564 250.412, 564 249.596 C 564 247.875, 548.812 234.206, 538.843 226.955 C 535.079 224.218, 532 222.200, 532 222.471 M 573.656 240.250 C 571.094 242.597, 533.592 297.925, 534.171 298.504 C 534.480 298.813, 552.691 301, 554.961 301 C 555.532 301, 556 301.476, 556 302.058 C 556 302.639, 548.869 313.102, 540.152 325.308 C 522.553 349.953, 520.556 352.902, 521.115 353.421 C 521.327 353.618, 526.398 354.541, 532.384 355.472 C 546.500 357.668, 546.602 357.711, 544.187 360.378 C 540.691 364.239, 520 395.821, 520 397.296 C 520 399.910, 527.368 407.062, 531.500 408.459 L 535.500 409.812 535.776 424.264 L 536.052 438.717 528.276 439.960 C 520.797 441.156, 500.370 446.046, 496.750 447.508 C 495.189 448.138, 495 447.502, 495 441.607 L 495 435 512.250 434.985 C 521.737 434.976, 530.113 434.581, 530.862 434.106 C 531.929 433.431, 531.146 431.641, 527.262 425.871 C 524.533 421.817, 517.439 410.625, 511.498 401 C 505.558 391.375, 499.192 381.259, 497.353 378.520 C 493.243 372.400, 493.227 372.409, 508.960 371.414 C 515.065 371.028, 520.235 370.429, 520.449 370.083 C 520.831 369.464, 492.798 331.543, 488.854 327.345 C 486.925 325.292, 486.916 325.164, 488.664 324.655 C 489.674 324.361, 494.758 323.622, 499.963 323.014 C 505.168 322.405, 509.516 321.816, 509.627 321.704 C 509.737 321.592, 505.479 315.555, 500.164 308.290 C 494.849 301.024, 486.675 289.586, 482 282.871 C 472.059 268.593, 467.999 264, 465.319 264 C 462.536 264, 459.739 267.318, 445.931 287 C 439.179 296.625, 431.053 308.199, 427.874 312.720 C 424.696 317.241, 422.411 321.119, 422.797 321.337 C 423.184 321.554, 427.887 322.301, 433.250 322.995 C 438.613 323.689, 443 324.686, 443 325.210 C 443 325.735, 441.480 328.039, 439.622 330.332 C 437.764 332.624, 430.760 342.129, 424.058 351.454 C 410.246 370.671, 410.251 368.986, 424 370.914 C 428.675 371.570, 433.252 372.326, 434.171 372.595 C 435.498 372.984, 431.859 379.214, 416.534 402.792 C 405.914 419.132, 397.426 432.837, 397.672 433.250 C 397.917 433.662, 407.290 434, 418.500 434 C 429.710 434, 439.021 434.337, 439.191 434.750 C 439.361 435.163, 439.368 444.219, 439.207 454.876 L 438.915 474.252 430.957 482.349 C 426.581 486.803, 423 490.543, 423 490.661 C 423 490.780, 427.837 488.839, 433.750 486.350 C 474.894 469.025, 516.547 458.019, 563.276 452.127 C 574.183 450.752, 578.572 449.793, 580.039 448.464 C 582.002 446.688, 582.024 445.363, 581.764 343.752 C 581.506 243.192, 581.456 240.806, 579.559 239.419 C 576.993 237.543, 576.541 237.607, 573.656 240.250 M 583 276 L 583 282 588.066 282 L 593.133 282 588.419 276 C 585.826 272.700, 583.546 270, 583.352 270 C 583.159 270, 583 272.700, 583 276 M 145.750 279.538 C 145.338 279.976, 145 283.153, 145 286.599 C 145 291.699, 145.326 292.963, 146.750 293.393 C 149.718 294.287, 171.707 297.804, 188 299.990 C 222.900 304.672, 253.518 311.154, 269.314 317.202 C 285.542 323.417, 290.436 334.960, 281.193 345.219 C 276.315 350.635, 270.620 353.017, 247.142 359.465 C 217.273 367.667, 201.700 374.044, 188.458 383.493 C 169.007 397.373, 161.248 417.839, 165.365 444.410 C 166.935 454.547, 167.726 455.958, 171.847 455.985 C 175.502 456.009, 208.926 461.785, 218.714 464.084 C 230.330 466.814, 255.022 473.443, 267.500 477.183 C 281.664 481.429, 290.777 484.695, 312.862 493.442 C 323.511 497.659, 332.473 500.860, 332.778 500.555 C 333.084 500.250, 333.146 499.870, 332.917 499.712 C 313.369 486.197, 289.571 463.680, 278.790 448.500 C 270.584 436.945, 267.758 430.536, 267.213 422.240 C 266.604 412.975, 268.544 407.597, 274.462 402.141 C 280.274 396.784, 285.428 394.318, 305 387.528 C 329.820 378.917, 340.893 372.855, 346.784 364.651 C 360.935 344.944, 354.157 321.704, 330.171 307.690 C 313.318 297.843, 281.870 289.228, 249.500 285.590 C 209.595 281.105, 147.679 277.494, 145.750 279.538 M 258.648 297.475 C 257.021 301.714, 257.814 302.612, 264.232 303.806 C 269.321 304.752, 270.713 304.715, 271.825 303.604 C 272.972 302.456, 272.637 301.825, 269.686 299.574 C 265.211 296.161, 259.564 295.087, 258.648 297.475 M 291.510 308.246 C 289.981 310.388, 290.036 310.599, 292.604 312.500 C 294.090 313.600, 297.591 316.190, 300.385 318.256 C 303.178 320.322, 305.921 321.860, 306.481 321.674 C 308.263 321.083, 309.528 316.062, 308.364 314.197 C 307.018 312.041, 299.336 307.391, 295.810 306.597 C 293.738 306.131, 292.749 306.510, 291.510 308.246 M 304.487 339.624 C 303.119 342.718, 302 345.666, 302 346.175 C 302 346.956, 307.907 350, 309.421 350 C 310.315 350, 314 340.773, 314 338.533 C 314 336.499, 310.659 334, 307.940 334 C 307.409 334, 305.855 336.531, 304.487 339.624 M 281.821 363.028 C 278.698 364.641, 275.860 366.418, 275.514 366.978 C 274.553 368.532, 278.197 374, 280.193 374 C 282.684 374, 293.001 368.796, 292.996 367.542 C 292.991 366.041, 289.171 359.991, 288.265 360.048 C 287.844 360.075, 284.945 361.416, 281.821 363.028 M 243.446 378.115 C 240.726 379.828, 238.307 381.408, 238.071 381.627 C 237.108 382.520, 241.088 389, 242.598 389 C 245.239 389, 254 383.810, 254 382.245 C 254 380.182, 250.767 375, 249.480 375 C 248.881 375, 246.166 376.402, 243.446 378.115 M 217.222 395.264 C 216.052 396.509, 214.399 399.193, 213.549 401.229 C 212.090 404.721, 212.112 404.989, 213.935 405.965 C 218.051 408.168, 220.677 407.227, 223.405 402.572 C 226.504 397.283, 226.649 395.418, 224.066 394.035 C 221.160 392.480, 219.569 392.766, 217.222 395.264 M 214.250 422.220 C 211.775 423.414, 211.452 425.931, 212.946 432.372 C 214.186 437.717, 215.247 438.555, 218.873 437.053 C 220.514 436.373, 222.054 435.296, 222.296 434.658 C 222.958 432.916, 220.110 422.689, 218.716 421.803 C 217.223 420.855, 217.048 420.871, 214.250 422.220 M 223.011 450.487 C 221.340 452.501, 222.332 455.776, 225.930 460.118 C 228.305 462.984, 229.459 463.635, 231.479 463.249 C 232.882 462.981, 234.277 462.362, 234.578 461.873 C 234.880 461.385, 233.645 458.288, 231.833 454.993 C 228.390 448.730, 225.636 447.323, 223.011 450.487 M 121.022 550.170 C 121.073 553.253, 125.008 559.870, 128.102 562.072 C 132.009 564.855, 130.637 564.781, 189.500 565.392 C 221.736 565.727, 231.275 566.162, 244.500 567.903 C 265.369 570.650, 264.599 570.505, 285.500 575.605 C 303.272 579.942, 318.969 585.335, 334.426 592.416 C 343.726 596.676, 342.851 594.850, 332.153 587.672 C 306.873 570.711, 271.451 557.886, 232 551.410 C 217.813 549.081, 120.986 547.999, 121.022 550.170 M 515 550.124 C 473.209 554.939, 432.273 569.321, 406.978 588.077 C 397.637 595.002, 396.098 596.996, 402.649 593.683 C 409.169 590.386, 427.967 582.752, 436 580.139 C 447.473 576.406, 477.186 569.998, 492 568.060 C 497.225 567.377, 503.632 566.471, 506.238 566.048 C 508.844 565.624, 517.819 565.188, 526.181 565.078 C 534.544 564.969, 541.689 564.692, 542.058 564.464 C 542.427 564.236, 557.310 564.015, 575.131 563.974 C 605.879 563.902, 607.697 563.795, 610.732 561.873 C 614.413 559.542, 618 554.241, 618 551.132 L 618 549 570.250 549.130 C 543.987 549.201, 519.125 549.648, 515 550.124 M 145.033 595.115 C 145.052 596.427, 145.858 598.446, 146.825 599.603 C 151.050 604.657, 148.495 604.498, 225.731 604.529 C 265.458 604.545, 297.408 604.254, 296.731 603.882 C 294.770 602.805, 275.543 599.195, 263 597.548 C 240.398 594.581, 227.931 593.889, 186.750 593.313 L 145 592.730 145.033 595.115 M 520.500 593.669 C 504.778 594.430, 484.234 596.301, 472.004 598.086 C 459.126 599.966, 440.510 603.847, 441.182 604.512 C 441.357 604.685, 444.875 604.454, 449 603.999 C 453.125 603.543, 466.625 603.347, 479 603.562 C 491.375 603.778, 520.350 604.188, 543.389 604.473 C 583.813 604.974, 585.389 604.923, 588.467 603.020 C 590.221 601.936, 592.184 599.892, 592.828 598.478 C 595.443 592.739, 596.949 592.983, 560.250 593.189 C 541.688 593.293, 523.800 593.509, 520.500 593.669" stroke="none" fill="#f6f7f4" fill-rule="evenodd"/></svg>