<svg xmlns="http://www.w3.org/2000/svg" width="690" height="690" viewBox="0 0 690 690" version="1.1"><path d="M 322.750 54.723 C 324.538 54.945, 327.462 54.945, 329.250 54.723 C 331.038 54.502, 329.575 54.320, 326 54.320 C 322.425 54.320, 320.962 54.502, 322.750 54.723 M 361.250 54.716 C 362.762 54.945, 365.238 54.945, 366.750 54.716 C 368.262 54.487, 367.025 54.300, 364 54.300 C 360.975 54.300, 359.738 54.487, 361.250 54.716 M 462.083 79.385 C 463.101 80.323, 481 88.968, 481 88.520 C 481 87.965, 463.441 79, 462.353 79 C 461.976 79, 461.854 79.173, 462.083 79.385 M 309.872 93.750 C 308.630 95.335, 308.665 95.371, 310.244 94.132 C 311.204 93.380, 313.102 92.978, 314.464 93.238 C 315.826 93.498, 316.702 93.326, 316.411 92.856 C 315.487 91.360, 311.297 91.934, 309.872 93.750 M 194.250 97.115 C 190.841 99.298, 189.738 100.764, 192.750 99.108 C 195.044 97.847, 198.639 95.068, 198 95.049 C 197.725 95.040, 196.037 95.970, 194.250 97.115 M 435.026 101.316 C 436.521 102.935, 443.239 106.992, 442.046 105.555 C 441.276 104.627, 439.263 103.166, 437.573 102.307 C 435.883 101.448, 434.737 101.002, 435.026 101.316 M 182.250 105.099 C 179.912 106.755, 178 108.332, 178 108.603 C 178 108.874, 180.025 107.703, 182.500 106 C 184.975 104.297, 187 102.701, 187 102.452 C 187 101.764, 186.810 101.869, 182.250 105.099 M 396.400 104.864 C 394.255 106.440, 391.375 109.018, 390 110.594 C 388.430 112.392, 389.175 111.977, 392 109.479 C 394.475 107.291, 397.625 104.736, 399 103.802 C 400.375 102.869, 401.230 102.081, 400.900 102.052 C 400.570 102.024, 398.545 103.289, 396.400 104.864 M 319.748 106.511 C 320.908 108.699, 324.862 112.574, 325.256 111.911 C 325.390 111.685, 323.966 109.925, 322.091 108 C 320.216 106.075, 319.161 105.405, 319.748 106.511 M 172.962 112.072 L 169.500 115.144 173.250 112.453 C 176.564 110.076, 177.642 109, 176.712 109 C 176.554 109, 174.866 110.382, 172.962 112.072 M 199.488 136.250 L 183.500 152.500 199.740 136.522 L 215.980 120.543 222.240 126.522 L 228.500 132.500 222.531 126.250 C 215.174 118.546, 218.197 117.235, 199.488 136.250 M 157.453 125.250 L 153.500 129.500 157.750 125.547 C 161.702 121.871, 162.460 121, 161.703 121 C 161.540 121, 159.627 122.912, 157.453 125.250 M 331.500 123 C 328.732 123.704, 328.694 123.771, 331 123.866 C 332.375 123.923, 334.175 123.533, 335 123 C 336.702 121.900, 335.822 121.900, 331.500 123 M 294.083 123.356 C 294.313 123.552, 296.075 124.002, 298 124.355 C 300.462 124.807, 301.055 124.706, 300 124.014 C 298.644 123.125, 293.092 122.508, 294.083 123.356 M 547 138.500 C 553.307 144.825, 558.692 150, 558.967 150 C 559.242 150, 554.307 144.825, 548 138.500 C 541.693 132.175, 536.308 127, 536.033 127 C 535.758 127, 540.693 132.175, 547 138.500 M 248 153.500 C 257.062 162.575, 264.702 170, 264.977 170 C 265.252 170, 258.062 162.575, 249 153.500 C 239.938 144.425, 232.298 137, 232.023 137 C 231.748 137, 238.938 144.425, 248 153.500 M 309 140.609 C 309 143.292, 315.042 145.360, 316.411 143.144 C 316.702 142.674, 315.758 142.515, 314.313 142.791 C 312.501 143.137, 311.271 142.724, 310.344 141.455 C 309.605 140.445, 309 140.064, 309 140.609 M 145 151.500 C 146.866 153.425, 148.617 155, 148.892 155 C 149.167 155, 147.866 153.425, 146 151.500 C 144.134 149.575, 142.383 148, 142.108 148 C 141.833 148, 143.134 149.575, 145 151.500 M 173 163.500 C 170.571 165.975, 168.809 168, 169.084 168 C 169.359 168, 171.571 165.975, 174 163.500 C 176.429 161.025, 178.191 159, 177.916 159 C 177.641 159, 175.429 161.025, 173 163.500 M 157.500 165 C 159.648 167.200, 161.631 169, 161.906 169 C 162.181 169, 160.648 167.200, 158.500 165 C 156.352 162.800, 154.369 161, 154.094 161 C 153.819 161, 155.352 162.800, 157.500 165 M 289.500 196 C 298.838 205.350, 306.703 213, 306.978 213 C 307.253 213, 299.838 205.350, 290.500 196 C 281.162 186.650, 273.297 179, 273.022 179 C 272.747 179, 280.162 186.650, 289.500 196 M 524.462 205.250 L 519.500 210.500 524.750 205.538 C 529.628 200.926, 530.459 200, 529.712 200 C 529.554 200, 527.192 202.363, 524.462 205.250 M 198.425 238 C 198.425 249.825, 198.569 254.662, 198.746 248.750 C 198.923 242.838, 198.923 233.162, 198.746 227.250 C 198.569 221.338, 198.425 226.175, 198.425 238 M 331.500 239 C 334.766 242.300, 337.662 245, 337.937 245 C 338.212 245, 335.766 242.300, 332.500 239 C 329.234 235.700, 326.338 233, 326.063 233 C 325.788 233, 328.234 235.700, 331.500 239 M 129.966 247.750 L 124.500 253.500 130.250 248.034 C 133.412 245.028, 136 242.440, 136 242.284 C 136 241.542, 135.044 242.408, 129.966 247.750 M 157.300 248 C 157.300 251.025, 157.487 252.262, 157.716 250.750 C 157.945 249.238, 157.945 246.762, 157.716 245.250 C 157.487 243.738, 157.300 244.975, 157.300 248 M 142.371 255.947 C 136.961 261.912, 132.731 267, 133.183 267 C 133.800 267, 147.246 251.907, 146.863 251.644 C 146.663 251.507, 144.642 253.443, 142.371 255.947 M 113.826 265.146 C 115.941 267.551, 116.123 268.567, 115.826 276.304 C 115.647 280.985, 115.838 284.606, 116.250 284.349 C 118.591 282.892, 116.990 267.340, 114.250 264.924 L 111.500 262.500 113.826 265.146 M 224.310 283.500 C 224.315 286.800, 224.502 288.029, 224.725 286.232 C 224.947 284.435, 224.943 281.735, 224.715 280.232 C 224.486 278.729, 224.304 280.200, 224.310 283.500 M 333.310 281.477 C 330.470 283.390, 327.841 285.448, 327.469 286.051 C 326.885 286.995, 335.757 281.156, 338.450 278.823 C 340.618 276.945, 338.139 278.225, 333.310 281.477 M 350.462 294.250 L 345.500 299.500 350.750 294.538 C 353.637 291.808, 356 289.446, 356 289.288 C 356 288.541, 355.074 289.372, 350.462 294.250 M 223 291.855 C 223 293.967, 218.532 295.342, 215.876 294.048 C 213.619 292.948, 213.597 292.967, 215.441 294.445 C 218.320 296.751, 226.203 293.881, 223.750 291.419 C 223.338 291.005, 223 291.201, 223 291.855 M 314.946 296.750 L 311.500 300.500 315.250 297.054 C 317.313 295.158, 319 293.471, 319 293.304 C 319 292.540, 318.154 293.260, 314.946 296.750 M 361.453 304.250 L 357.500 308.500 361.750 304.547 C 365.702 300.871, 366.460 300, 365.703 300 C 365.540 300, 363.627 301.913, 361.453 304.250 M 344.757 312.750 C 346.052 313.988, 348.099 314.961, 349.306 314.914 C 351.126 314.843, 351.013 314.682, 348.643 313.972 C 347.071 313.501, 345.024 312.527, 344.094 311.808 C 343.163 311.088, 343.462 311.512, 344.757 312.750 M 470.777 322 C 416.172 322.654, 417.688 320.733, 441.780 358.736 C 442.389 359.697, 445.340 359.435, 455.032 357.562 C 480.808 352.580, 510.514 351.616, 532.738 355.039 L 540.976 356.308 552.851 374.404 C 559.383 384.357, 567.342 396.550, 570.538 401.500 C 573.735 406.450, 580.903 417.475, 586.468 426 C 592.033 434.525, 599.041 445.429, 602.043 450.230 C 609.278 461.805, 609.837 461.696, 614.777 447.750 C 634.707 391.479, 641.642 329.820, 628.784 323.198 C 626.139 321.836, 539.364 321.178, 470.777 322 M 59.734 326.031 L 55.703 330.062 56.315 350.281 C 57.375 385.280, 62.728 413.055, 74.826 446.332 C 81.446 464.541, 77.509 468.196, 114.500 409.497 C 124.400 393.787, 136.118 375.436, 140.540 368.717 L 148.579 356.500 155.540 355.235 C 175.325 351.638, 219.132 353.039, 239.480 357.920 C 249.243 360.262, 247.340 361.766, 256.931 344.127 C 270.389 319.375, 281.633 322, 162.160 322 L 63.765 322 59.734 326.031 M 339.924 330.750 L 337.500 333.500 340 331.325 C 341.375 330.128, 344.075 328.963, 346 328.735 L 349.500 328.320 345.924 328.160 C 343.160 328.036, 341.798 328.624, 339.924 330.750 M 337.382 345.500 C 337.384 352.100, 337.546 354.670, 337.741 351.211 C 337.937 347.752, 337.936 342.352, 337.738 339.211 C 337.540 336.070, 337.380 338.900, 337.382 345.500 M 353.385 346 C 353.385 352.875, 353.545 355.688, 353.740 352.250 C 353.936 348.813, 353.936 343.188, 353.740 339.750 C 353.545 336.313, 353.385 339.125, 353.385 346 M 592.071 358.752 C 579.038 365.397, 584.601 384.913, 598.882 382.644 C 611.586 380.626, 612.600 361.483, 600.186 358.035 C 595.542 356.745, 596.103 356.696, 592.071 358.752 M 85.898 360.287 C 79.388 364.667, 78.702 375.260, 84.626 379.920 C 95.400 388.395, 109.887 376.352, 103.583 364.161 C 100.403 358.011, 92.011 356.173, 85.898 360.287 M 285.083 374.380 C 286.103 375.309, 296 379.982, 296 379.534 C 296 378.970, 286.450 374, 285.367 374 C 284.982 374, 284.854 374.171, 285.083 374.380 M 163.872 383.750 C 162.661 385.295, 162.685 385.356, 164.077 384.271 C 165.180 383.411, 171.947 382.954, 186.577 382.749 L 207.500 382.457 186.372 382.229 C 167.276 382.022, 165.113 382.168, 163.872 383.750 M 504.924 382.749 C 518.351 382.953, 524.835 383.424, 525.924 384.272 C 527.315 385.356, 527.339 385.294, 526.128 383.750 C 524.892 382.175, 522.795 382.023, 505.128 382.227 L 485.500 382.454 504.924 382.749 M 211.762 383.707 C 213.006 383.946, 214.806 383.937, 215.762 383.687 C 216.718 383.437, 215.700 383.241, 213.500 383.252 C 211.300 383.263, 210.518 383.468, 211.762 383.707 M 305 385.311 C 305 385.544, 306.913 386.996, 309.250 388.537 C 311.587 390.079, 312.972 390.701, 312.327 389.920 C 311.086 388.418, 305 384.589, 305 385.311 M 324 399.275 C 324 399.426, 327.488 402.914, 331.750 407.025 L 339.500 414.500 332.025 406.750 C 325.082 399.552, 324 398.544, 324 399.275 M 270.083 400.381 C 271.102 401.314, 283 406.977, 283 406.529 C 283 405.968, 271.447 400, 270.362 400 C 269.979 400, 269.854 400.172, 270.083 400.381 M 355.462 410.250 L 350.500 415.500 355.750 410.538 C 358.637 407.808, 361 405.446, 361 405.288 C 361 404.541, 360.074 405.372, 355.462 410.250 M 372.966 431.750 L 367.500 437.500 373.250 432.034 C 378.592 426.956, 379.458 426, 378.716 426 C 378.560 426, 375.972 428.587, 372.966 431.750 M 316.958 432.250 C 321.102 436.665, 322 437.459, 322 436.708 C 322 436.548, 319.863 434.410, 317.250 431.958 L 312.500 427.500 316.958 432.250 M 333.469 510 C 333.469 542.175, 333.595 555.337, 333.749 539.250 C 333.904 523.162, 333.904 496.837, 333.749 480.750 C 333.595 464.662, 333.469 477.825, 333.469 510 M 356.230 518.250 C 356.104 553.313, 356.337 582, 356.750 582 C 357.430 582.001, 357.421 535.207, 356.728 477 C 356.581 464.625, 356.357 483.188, 356.230 518.250 M 143.250 481.745 C 148.062 481.928, 155.937 481.928, 160.750 481.745 C 165.563 481.561, 161.625 481.411, 152 481.411 C 142.375 481.411, 138.438 481.561, 143.250 481.745 M 535.250 481.743 C 539.513 481.931, 546.487 481.931, 550.750 481.743 C 555.013 481.556, 551.525 481.402, 543 481.402 C 534.475 481.402, 530.987 481.556, 535.250 481.743 M 251 504 C 252.925 505.054, 254.950 505.916, 255.500 505.916 C 256.050 505.916, 254.925 505.054, 253 504 C 251.075 502.946, 249.050 502.084, 248.500 502.084 C 247.950 502.084, 249.075 502.946, 251 504 M 297 533.275 C 297 533.426, 300.488 536.914, 304.750 541.025 L 312.500 548.500 305.025 540.750 C 298.082 533.552, 297 532.544, 297 533.275 M 384.453 541.250 L 380.500 545.500 384.750 541.547 C 388.702 537.871, 389.460 537, 388.703 537 C 388.540 537, 386.627 538.913, 384.453 541.250 M 155.113 559.364 C 153.161 561.715, 172.903 577.713, 193.666 590.607 C 300.644 657.038, 425.601 649.137, 526.250 569.576 C 537.324 560.823, 538.223 559, 531.468 559 C 519.831 559, 471.453 567.817, 455.418 572.859 C 452.163 573.883, 445.900 575.742, 441.500 576.991 C 417.444 583.817, 399.343 590.822, 369.258 604.946 L 356.016 611.163 343.758 610.800 L 331.500 610.437 317.537 603.661 C 292.044 591.290, 281.566 587.240, 248.445 576.958 C 219.710 568.037, 188.269 561.185, 168.260 559.483 C 164.542 559.167, 160.302 558.723, 158.837 558.496 C 157.373 558.270, 155.697 558.661, 155.113 559.364" stroke="none" fill="#40b170" fill-rule="evenodd"/><path d="M 317.500 0.600 C 221.715 9.810, 133.957 55.692, 77.647 126 C 73.462 131.225, 69.433 136.209, 68.693 137.076 C 67.953 137.943, 67.058 139.406, 66.705 140.326 C 66.352 141.247, 65.599 142, 65.031 142 C 64.464 142, 64 142.567, 64 143.260 C 64 143.953, 62.875 145.734, 61.500 147.217 C 60.125 148.699, 59 150.382, 59 150.956 C 59 151.530, 58.550 152, 58 152 C 57.450 152, 57 152.675, 57 153.500 C 57 154.325, 56.663 155.005, 56.250 155.011 C 55.837 155.018, 54.640 156.818, 53.589 159.011 C 52.538 161.205, 51.301 163, 50.839 163 C 50.378 163, 50 163.459, 50 164.020 C 50 164.581, 48.843 166.873, 47.428 169.114 C 9.851 228.639, -7.322 318.508, 3.969 396.536 C 10.474 441.490, 25.021 481.431, 50.130 523.285 C 53.358 528.667, 56 533.505, 56 534.035 C 56 534.566, 56.450 535, 57 535 C 57.550 535, 58 535.675, 58 536.500 C 58 537.325, 58.450 538, 59 538 C 59.550 538, 60 538.470, 60 539.044 C 60 539.618, 61.125 541.301, 62.500 542.783 C 63.875 544.266, 65 545.840, 65 546.282 C 65 546.723, 65.945 548.077, 67.099 549.292 C 68.254 550.506, 69.491 552.249, 69.849 553.165 C 74.865 565.995, 124.723 613.571, 151.725 631.294 C 311.491 736.155, 514.106 699.138, 626.698 544.518 C 690.303 457.171, 707.913 332.307, 670.923 230.950 C 662.825 208.762, 642.832 166.060, 639.108 163 C 638.774 162.725, 637.643 160.925, 636.595 159 C 634.554 155.252, 629.747 148.326, 621.136 136.726 C 567.627 64.648, 484.883 16.268, 391.500 2.459 C 381.037 0.911, 328.090 -0.419, 317.500 0.600 M 311 55.511 C 247.467 64.236, 192.849 90.533, 148.250 133.868 C 136.643 145.147, 135.113 140.802, 160.152 167.677 L 164.975 172.853 171.219 166.177 C 184.572 151.898, 215.486 120.996, 216.172 121.242 C 216.570 121.384, 229.842 134.775, 245.665 151 C 261.488 167.225, 288.755 195.062, 306.257 212.861 L 338.079 245.221 348.610 240.521 C 367.127 232.256, 380.852 228.092, 434 214.617 C 489.985 200.422, 508 191.405, 508 177.577 C 508 174.697, 501.172 166.507, 497.908 165.471 C 493.210 163.980, 496.828 163, 507.032 163 C 528.586 163, 539.246 174.979, 533.348 192.572 C 527.384 210.363, 501.354 223.873, 441.974 239.997 C 397.865 251.974, 393.983 253.090, 381.044 257.522 C 346.812 269.248, 317.497 289.551, 303.732 311.070 C 299.482 317.714, 298.023 321.043, 292.867 335.863 C 288.871 347.352, 285.618 354.472, 280.054 363.908 C 275.991 370.799, 275.669 370.242, 286.749 375.491 C 303.836 383.585, 317.932 393.738, 332.727 408.608 C 345.496 421.442, 346.005 421.830, 347.413 419.821 C 357.975 404.741, 386.175 383.101, 406.546 374.443 C 414.339 371.131, 414.335 372.788, 406.590 357.857 C 394.033 333.652, 392.378 319.667, 400.131 303.279 C 408.599 285.380, 422.235 277.825, 475.727 261.396 C 573.195 231.462, 598.256 189.045, 548.085 138.933 C 484.779 75.701, 394.721 44.013, 311 55.511 M 310.243 94.157 C 309.559 94.841, 309 96.743, 309 98.384 C 309 106.211, 304.272 111.489, 295.519 113.432 C 290.678 114.507, 290.500 114.669, 290.500 117.999 C 290.500 121.606, 291.118 122.047, 298.173 123.463 C 299.643 123.758, 302.149 125.096, 303.742 126.436 C 306.344 128.626, 307.166 130.455, 309.840 140 C 311.542 146.075, 316.540 143.700, 317.975 136.134 C 319.385 128.696, 321.925 125.541, 327.719 124.032 C 330.349 123.347, 333.264 122.586, 334.199 122.342 C 339.836 120.868, 336.716 114.498, 329.637 113.028 C 322.091 111.462, 318.412 107.075, 317.142 98.128 C 316.443 93.202, 313.114 91.286, 310.243 94.157 M 411.407 99.031 C 391.618 102.954, 377.545 124.085, 381.932 143.288 C 388.830 173.487, 424.420 184.633, 445.771 163.282 C 471.935 137.117, 447.715 91.832, 411.407 99.031 M 338.597 164.166 C 337.718 165.419, 337 167.042, 337 167.772 C 337 171.593, 333.984 174.827, 329.772 175.522 C 324.376 176.412, 323 177.536, 323 181.055 C 323 183.952, 323.423 184.232, 329.738 185.502 C 333.140 186.187, 337 190.125, 337 192.912 C 337 195.176, 339.818 199, 341.485 199 C 343.601 199, 346 196.111, 346 193.563 C 346 189.777, 349.677 186.075, 354.150 185.360 C 361.236 184.227, 361.808 177.473, 354.912 176.370 C 349.395 175.488, 347.707 173.878, 345.958 167.832 C 344.179 161.677, 341.333 160.259, 338.597 164.166 M 212.256 178.645 C 187.956 190.624, 176.842 236.138, 193.429 255.750 C 198.735 262.024, 199 261.166, 199 237.689 C 199 213.880, 199.515 212, 206.039 212 C 213.058 212, 213 211.650, 213 254 C 213 294.844, 213.148 296, 218.389 296 C 223.144 296, 224.500 292.660, 224.500 280.949 L 224.500 269.728 228 267.422 C 229.925 266.153, 232.027 265.089, 232.671 265.058 C 233.315 265.026, 235.978 262.864, 238.589 260.253 C 256.945 241.897, 253.397 210.499, 230.236 186.344 C 222.432 178.204, 217.465 176.077, 212.256 178.645 M 118.951 199.876 C 86.576 220.842, 83 267.992, 112.623 283.306 C 116.751 285.439, 117 285.010, 117 275.771 L 117 267.875 110.024 259.959 C 96.241 244.317, 103.526 232.492, 117.634 247.605 L 123.952 254.374 130.879 247.687 C 138.494 240.336, 140.733 239.642, 144.545 243.455 C 148.285 247.194, 147.708 250.354, 142.201 256.310 C 131.885 267.466, 132 267.237, 132 276.577 C 132 281.210, 132.240 285, 132.533 285 C 146.183 285, 160.287 259.190, 157.040 240.152 C 153.108 217.105, 130.030 192.701, 118.951 199.876 M 232.098 228.265 C 226.247 231.273, 223.477 236.604, 223.773 244.287 C 224.144 253.919, 225.815 253.903, 234.500 244.184 C 241.720 236.104, 242.469 233.378, 238.545 229.455 C 235.738 226.647, 235.374 226.580, 232.098 228.265 M 352.401 293.249 C 340.745 305.033, 339.544 307.923, 344.635 311.927 C 349.954 316.111, 351.438 315.306, 364.385 301.208 C 372.429 292.449, 373.421 289.901, 370.250 286.153 C 365.871 280.978, 363.677 281.850, 352.401 293.249 M 470.777 322 C 416.172 322.654, 417.688 320.733, 441.780 358.736 C 442.389 359.697, 445.340 359.435, 455.032 357.562 C 480.808 352.580, 510.514 351.616, 532.738 355.039 L 540.976 356.308 552.851 374.404 C 559.383 384.357, 567.342 396.550, 570.538 401.500 C 573.735 406.450, 580.903 417.475, 586.468 426 C 592.033 434.525, 599.041 445.429, 602.043 450.230 C 609.278 461.805, 609.837 461.696, 614.777 447.750 C 634.707 391.479, 641.642 329.820, 628.784 323.198 C 626.139 321.836, 539.364 321.178, 470.777 322 M 59.734 326.031 L 55.703 330.062 56.315 350.281 C 57.375 385.280, 62.728 413.055, 74.826 446.332 C 81.446 464.541, 77.509 468.196, 114.500 409.497 C 124.400 393.787, 136.118 375.436, 140.540 368.717 L 148.579 356.500 155.540 355.235 C 175.325 351.638, 219.132 353.039, 239.480 357.920 C 249.243 360.262, 247.340 361.766, 256.931 344.127 C 270.389 319.375, 281.633 322, 162.160 322 L 63.765 322 59.734 326.031 M 340.174 331.314 C 337.094 334.593, 336.862 357.374, 339.871 361.089 C 346.838 369.693, 353 362.663, 353 346.112 C 353 329.315, 347.747 323.254, 340.174 331.314 M 0.328 341.500 C 0.333 345.350, 0.513 346.802, 0.730 344.728 C 0.946 342.653, 0.943 339.503, 0.722 337.728 C 0.501 335.952, 0.324 337.650, 0.328 341.500 M 592.071 358.752 C 579.038 365.397, 584.601 384.913, 598.882 382.644 C 611.586 380.626, 612.600 361.483, 600.186 358.035 C 595.542 356.745, 596.103 356.696, 592.071 358.752 M 85.898 360.287 C 79.388 364.667, 78.702 375.260, 84.626 379.920 C 95.400 388.395, 109.887 376.352, 103.583 364.161 C 100.403 358.011, 92.011 356.173, 85.898 360.287 M 340.040 380.806 C 332.775 388.071, 339.283 399.416, 348.505 395.562 C 356.848 392.076, 355.306 380.112, 346.290 378.382 C 343.606 377.867, 342.582 378.264, 340.040 380.806 M 164.364 383.125 C 160.413 388.120, 99.775 485.109, 100.285 485.619 C 100.418 485.751, 105.020 485.126, 110.513 484.229 C 123.566 482.098, 176.821 481.810, 187.500 483.812 C 252.880 496.071, 305.670 529.508, 329.889 574 L 333.972 581.500 333.986 517.127 L 334 452.754 329.295 446.127 C 309.093 417.676, 269.088 394.177, 225 384.866 C 212.472 382.220, 166.133 380.890, 164.364 383.125 M 478.500 383.145 C 431.715 388.428, 380.212 416.529, 359.238 448.216 L 356.500 452.352 356.222 517.176 C 355.951 580.471, 356.190 585.893, 358.927 578.324 C 381.153 516.861, 495.684 468.121, 579.866 484.302 C 591.412 486.521, 591.106 486.985, 584.773 476.855 C 581.873 472.216, 572.750 457.510, 564.500 444.174 C 556.250 430.838, 544.091 411.506, 537.480 401.214 L 525.460 382.500 505.980 382.371 C 495.266 382.299, 482.900 382.648, 478.500 383.145 M 155.113 559.364 C 153.161 561.715, 172.903 577.713, 193.666 590.607 C 300.644 657.038, 425.601 649.137, 526.250 569.576 C 537.324 560.823, 538.223 559, 531.468 559 C 519.831 559, 471.453 567.817, 455.418 572.859 C 452.163 573.883, 445.900 575.742, 441.500 576.991 C 417.444 583.817, 399.343 590.822, 369.258 604.946 L 356.016 611.163 343.758 610.800 L 331.500 610.437 317.537 603.661 C 292.044 591.290, 281.566 587.240, 248.445 576.958 C 219.710 568.037, 188.269 561.185, 168.260 559.483 C 164.542 559.167, 160.302 558.723, 158.837 558.496 C 157.373 558.270, 155.697 558.661, 155.113 559.364" stroke="none" fill="#000000" fill-rule="evenodd"/><path d="M 327 54.601 C 258.440 59.329, 190.229 90.753, 143.145 139.299 L 138.790 143.789 144.580 150.145 C 147.765 153.640, 153.668 160.032, 157.699 164.348 L 165.028 172.196 174.215 162.348 C 179.267 156.932, 190.742 145.075, 199.715 136 L 216.029 119.500 222.765 126.497 C 226.469 130.345, 253.929 158.539, 283.786 189.149 L 338.072 244.804 349.286 239.777 C 367.475 231.622, 378.990 228.136, 434.552 213.961 C 489.542 199.932, 506.983 191.223, 506.996 177.783 C 507 173.732, 502.167 167.774, 497.406 165.964 C 492.034 163.922, 495.188 163, 507.550 163 C 523.423 163, 529.157 165.926, 533.449 176.218 C 544.024 201.572, 516.201 220.667, 438.295 241.523 C 376.774 257.993, 362.034 263.516, 338.943 278.748 C 312.820 295.980, 303.057 308.111, 293.871 334.752 C 289.922 346.205, 285.869 355.047, 280.020 364.966 C 278.309 367.868, 277.042 370.326, 277.205 370.428 C 277.367 370.530, 280.847 372.062, 284.938 373.832 C 304.639 382.360, 327.631 400.011, 342.312 417.879 L 345.089 421.259 356.081 409.683 C 371.903 393.020, 392.237 378.903, 410.205 372.107 L 412.909 371.084 406.018 357.792 C 382.533 312.493, 395.854 286.543, 451.834 268.534 C 507.617 250.589, 513.648 248.475, 524.771 242.969 C 576.077 217.569, 586.061 178.670, 550.627 142.229 C 491.551 81.473, 408.609 48.972, 327 54.601 M 310.208 93.249 C 309.592 93.992, 308.780 96.602, 308.405 99.050 C 307.036 107.968, 303.887 111.352, 295.868 112.518 C 286.286 113.912, 286.663 121.958, 296.405 123.980 C 303.900 125.536, 308.965 132.002, 308.994 140.050 C 309.023 148.081, 317.098 144.609, 318.413 136 C 319.571 128.423, 324.357 124, 331.396 124 C 334.900 124, 337.166 121.343, 336.804 117.660 C 336.493 114.494, 334.309 113.164, 326.795 111.561 C 322.921 110.735, 318.966 104.989, 317.637 98.257 C 316.439 92.192, 313.006 89.878, 310.208 93.249 M 412.780 98.030 C 371.844 104.927, 370.344 164.452, 410.866 173.992 C 447.737 182.673, 472.394 135.888, 445.305 108.647 C 438.560 101.864, 424.132 95.775, 418 97.125 C 417.725 97.186, 415.376 97.593, 412.780 98.030 M 337.412 165.750 C 336.595 167.813, 335.515 170.485, 335.012 171.689 C 334.191 173.656, 328.946 175.978, 325.285 175.994 C 319.706 176.020, 322.118 184.274, 328.165 185.848 C 334.113 187.397, 334.604 187.837, 336.708 193.516 C 339.723 201.656, 343.972 201.145, 346.911 192.289 C 348.429 187.714, 348.736 187.437, 353.768 186.100 C 359.172 184.665, 361.061 182.208, 359.631 178.480 C 358.996 176.826, 358.583 176.631, 352.310 175.027 C 349.846 174.397, 347.914 173.244, 347.620 172.228 C 347.344 171.277, 346.625 168.588, 346.021 166.250 C 344.470 160.246, 339.703 159.969, 337.412 165.750 M 211.149 180.051 C 186.237 195.238, 177.018 239.272, 195.119 256.614 L 198 259.374 198 238.110 L 198 216.846 200.923 213.923 C 204.444 210.402, 207.890 210.190, 210.826 213.314 C 212.979 215.606, 213 215.998, 213 253.314 C 213 289.667, 213.071 291.071, 215 293 C 220.683 298.683, 224 293.912, 224 280.059 L 224 269.117 230.076 265.879 C 251.621 254.396, 256.241 225.168, 240.442 200.303 C 229.001 182.297, 218.909 175.320, 211.149 180.051 M 119 200.137 C 88.942 218.421, 83.740 263.729, 109.721 280.939 C 116.004 285.100, 116.003 285.100, 115.976 275.750 L 115.952 267.500 108.977 259.500 C 95.459 243.994, 103.678 232.751, 117.890 247.309 L 124.049 253.618 130.358 247.309 C 142.830 234.837, 154.982 244.063, 142.853 256.796 C 132.165 268.016, 132 268.316, 132 276.535 C 132 284.821, 132.173 284.973, 138.135 281.931 C 165.625 267.907, 161.903 221.824, 131.635 201.440 C 125.688 197.435, 123.767 197.237, 119 200.137 M 227.994 231.246 C 222.209 237.267, 220.720 253.671, 226.087 252.267 C 230.033 251.235, 241 238.080, 241 234.378 C 241 226.411, 234.211 224.776, 227.994 231.246 M 351.866 292.940 C 339.589 305.530, 338.482 309.615, 346.179 313.929 C 354.099 318.369, 375.475 293.233, 370.385 285.465 C 366.876 280.109, 362.756 281.772, 351.866 292.940 M 339.589 331.077 C 337.152 333.973, 337 334.789, 337 345.012 C 337 361.564, 340.548 366.797, 349.455 363.379 C 355.931 360.894, 355.931 331.106, 349.455 328.621 C 345.637 327.156, 342.160 328.022, 339.589 331.077 M 341.377 378.917 C 335.850 382.278, 334.859 389.853, 339.306 394.750 C 343.085 398.913, 351.600 396.795, 353.956 391.106 C 357.267 383.112, 348.480 374.597, 341.377 378.917 M 159.798 391.086 C 156.884 395.653, 153.150 401.541, 151.500 404.169 C 149.850 406.798, 144.675 414.890, 140 422.152 C 127.040 442.283, 101.192 484.454, 101.562 484.862 C 101.743 485.061, 104.728 484.743, 108.195 484.155 C 198.532 468.839, 294.736 507.782, 330.468 574.131 L 333.500 579.761 333.172 515.631 L 332.844 451.500 328.725 446 C 299.710 407.258, 249.603 384.480, 190.798 383.299 L 165.096 382.783 159.798 391.086 M 475.689 384.094 C 428.541 390.988, 380.758 417.195, 360.507 447.266 L 357 452.473 357.070 516.987 C 357.129 570.975, 357.352 580.929, 358.435 578 C 381.240 516.345, 489.266 469.600, 576.788 483.515 C 582.437 484.413, 587.471 485.002, 587.976 484.824 C 588.481 484.646, 585.172 478.425, 580.623 471 C 566.244 447.532, 542.688 409.993, 533.717 396.250 L 525.067 383 503.284 383.122 C 491.303 383.189, 478.885 383.626, 475.689 384.094" stroke="none" fill="#ffffff" fill-rule="evenodd"/></svg>